<svg xmlns="http://www.w3.org/2000/svg" viewBox="0 0 1024 1024" width="1024" height="1024">
  <g transform="translate(0, 960) scale(1, -1)">
    <path d="M999 82 754 327Q752 329 749.5 330.5Q747 332 746 334Q777 382 794.0 438.0Q811 494 811 555Q811 639 779.0 713.0Q747 787 692.0 841.5Q637 896 563.0 928.0Q489 960 405 960Q321 960 247.0 928.0Q173 896 118.5 841.5Q64 787 32.0 713.0Q0 639 0 555Q0 471 32.0 397.5Q64 324 118.5 269.0Q173 214 247.0 182.0Q321 150 405 150Q466 150 522.0 167.5Q578 185 626 216Q627 213 629.0 211.0Q631 209 633 207L878 -39Q891 -52 906.5 -58.0Q922 -64 938 -64Q954 -64 970.0 -57.5Q986 -51 998 -39Q1024 -14 1024.0 21.5Q1024 57 999 82ZM405 278Q347 278 296.5 299.5Q246 321 208.5 359.0Q171 397 149.0 447.5Q127 498 127 555Q127 613 149.0 663.5Q171 714 208.5 751.5Q246 789 296.5 811.0Q347 833 405 833Q462 833 512.5 811.0Q563 789 601.0 751.5Q639 714 660.5 663.5Q682 613 682 555Q682 498 660.5 447.5Q639 397 601.0 359.0Q563 321 512.5 299.5Q462 278 405 278Z"/>
  </g>
</svg>
